<svg width="1600" height="900" viewBox="0 0 1600 900" fill="none" xmlns="http://www.w3.org/2000/svg">
  <defs>
    <linearGradient id="paper" x1="0" y1="0" x2="1600" y2="900" gradientUnits="userSpaceOnUse">
      <stop stop-color="#FCF6E8"/>
      <stop offset="0.55" stop-color="#F3F7F1"/>
      <stop offset="1" stop-color="#E8F2F8"/>
    </linearGradient>
    <radialGradient id="glow" cx="0" cy="0" r="1" gradientUnits="userSpaceOnUse" gradientTransform="translate(1020 430) rotate(90) scale(360 500)">
      <stop stop-color="#9FE0C5" stop-opacity="0.55"/>
      <stop offset="1" stop-color="#9FE0C5" stop-opacity="0"/>
    </radialGradient>
    <pattern id="microgrid" width="32" height="32" patternUnits="userSpaceOnUse">
      <path d="M32 0H0V32" stroke="#2E3247" stroke-opacity="0.045" stroke-width="1"/>
      <circle cx="0" cy="0" r="1.3" fill="#2E3247" fill-opacity="0.08"/>
    </pattern>
    <filter id="softShadow" x="-20%" y="-20%" width="140%" height="140%" color-interpolation-filters="sRGB">
      <feDropShadow dx="0" dy="16" stdDeviation="18" flood-color="#263149" flood-opacity="0.12"/>
    </filter>
    <marker id="arrow" markerWidth="18" markerHeight="12" refX="16" refY="6" orient="auto">
      <path d="M0 0L18 6L0 12Z" fill="#2E3247"/>
    </marker>
    <style>
      .serif { font-family: Georgia, 'Times New Roman', serif; }
      .sans { font-family: Avenir, Helvetica, Arial, sans-serif; }
      .mono { font-family: 'SF Mono', 'Menlo', 'Consolas', monospace; }
      .ink { fill: #2E3247; }
      .muted { fill: #65708C; }
      .tiny { font-size: 16px; letter-spacing: 0.12em; }
      .label { font-size: 18px; font-weight: 700; }
      .caption { font-size: 15px; letter-spacing: 0.06em; }
    </style>
  </defs>

  <rect width="1600" height="900" rx="42" fill="url(#paper)"/>
  <rect width="1600" height="900" rx="42" fill="url(#microgrid)"/>
  <rect width="1600" height="900" rx="42" fill="url(#glow)"/>

  <path d="M86 92H1514M86 810H1514M86 92V810M1514 92V810" stroke="#2E3247" stroke-opacity="0.18" stroke-width="2"/>
  <path d="M124 128H1476V774H124V128Z" stroke="#2E3247" stroke-opacity="0.10" stroke-width="1.5" stroke-dasharray="8 12"/>

  <text x="118" y="86" class="mono tiny muted">OPEN-SOURCE SCIENTIFIC FIGURE RECONSTRUCTION · FIGVECTOR FIELD POSTER 001</text>
  <text x="1210" y="86" class="mono tiny muted">PNG → SCENE GRAPH → SVG / DRAW.IO</text>

  <text x="118" y="188" class="serif ink" font-size="96" font-weight="700">FigVector</text>
  <text x="124" y="232" class="sans muted" font-size="25">Turn scientific PNG diagrams into editable vector systems.</text>
  <text x="124" y="266" class="sans muted" font-size="21">科研示意图 → 语义图元 → 可编辑矢量图</text>

  <g transform="translate(115 325)" filter="url(#softShadow)">
    <rect width="390" height="315" rx="28" fill="#FFFDF8" stroke="#D9E2D8"/>
    <text x="28" y="48" class="mono caption muted">SOURCE / RASTER SPECIMEN</text>
    <text x="28" y="82" class="sans label ink">Nano Banana PNG</text>
    <g transform="translate(34 112)">
      <rect width="320" height="152" rx="20" fill="#F2EFE4" stroke="#CBD6CB"/>
      <g opacity="0.96">
        <rect x="24" y="30" width="82" height="54" rx="14" fill="#5A84FF"/>
        <rect x="139" y="30" width="82" height="54" rx="14" fill="#4EC48C"/>
        <rect x="254" y="30" width="44" height="54" rx="14" fill="#FFAE56"/>
        <line x1="107" y1="57" x2="139" y2="57" stroke="#2E3247" stroke-width="7" stroke-linecap="round" marker-end="url(#arrow)"/>
        <line x1="222" y1="57" x2="254" y2="57" stroke="#2E3247" stroke-width="7" stroke-linecap="round" marker-end="url(#arrow)"/>
        <circle cx="160" cy="118" r="27" fill="#7ABAFF"/>
        <path d="M188 118H238V138H284" stroke="#2E3247" stroke-width="7" stroke-linecap="round" stroke-linejoin="round"/>
        <rect x="278" y="113" width="36" height="38" rx="10" fill="#F8DF8F"/>
      </g>
      <g opacity="0.35">
        <rect x="29" y="36" width="6" height="6" fill="#FCF6E8"/>
        <rect x="54" y="70" width="5" height="5" fill="#FCF6E8"/>
        <rect x="147" y="38" width="5" height="5" fill="#FCF6E8"/>
        <rect x="181" y="62" width="6" height="6" fill="#FCF6E8"/>
        <rect x="260" y="42" width="4" height="4" fill="#FCF6E8"/>
      </g>
    </g>
    <g transform="translate(30 286)">
      <circle cx="0" cy="0" r="4" fill="#5A84FF"/><circle cx="28" cy="0" r="4" fill="#4EC48C"/><circle cx="56" cy="0" r="4" fill="#FFAE56"/>
      <text x="82" y="6" class="mono caption muted">pixels, colors, labels, arrows</text>
    </g>
  </g>

  <g transform="translate(555 346)">
    <path d="M0 110C72 25 162 26 240 109C316 190 404 191 480 108" stroke="#2E3247" stroke-width="5" stroke-linecap="round" stroke-dasharray="2 16" marker-end="url(#arrow)"/>
    <g transform="translate(132 0)">
      <circle cx="110" cy="110" r="98" fill="#FFFFFF" fill-opacity="0.72" stroke="#2E3247" stroke-opacity="0.22"/>
      <circle cx="110" cy="110" r="66" fill="#F8DF8F" fill-opacity="0.35" stroke="#FFAE56" stroke-width="2"/>
      <path d="M66 112H154M110 68V156" stroke="#2E3247" stroke-width="4" stroke-linecap="round" opacity="0.48"/>
      <text x="110" y="103" text-anchor="middle" class="mono caption ink">semantic</text>
      <text x="110" y="128" text-anchor="middle" class="mono caption ink">lift</text>
    </g>
    <text x="86" y="278" class="mono caption muted">SEGMENT · DETECT · RELATE · EXPORT · EVALUATE</text>
  </g>

  <g transform="translate(1082 282)" filter="url(#softShadow)">
    <rect width="408" height="415" rx="30" fill="#FFFFFF" stroke="#D6DFEA"/>
    <text x="30" y="52" class="mono caption muted">TARGET / EDITABLE SYSTEM</text>
    <text x="30" y="88" class="sans label ink">SVG + draw.io scene graph</text>
    <g transform="translate(38 128)">
      <rect x="0" y="0" width="332" height="210" rx="22" fill="#F8FBFC" stroke="#D6DFEA"/>
      <g stroke="#2E3247" stroke-width="3" fill="none" opacity="0.85">
        <rect x="35" y="38" width="88" height="58" rx="13"/>
        <rect x="206" y="38" width="88" height="58" rx="13"/>
        <circle cx="112" cy="154" r="32"/>
        <rect x="230" y="136" width="72" height="48" rx="11"/>
        <path d="M124 67H203" marker-end="url(#arrow)"/>
        <path d="M145 154H190V164H230" stroke-linejoin="round"/>
      </g>
      <g fill="#4EC48C">
        <circle cx="35" cy="38" r="6"/><circle cx="123" cy="96" r="6"/><circle cx="206" cy="38" r="6"/><circle cx="294" cy="96" r="6"/>
        <circle cx="112" cy="122" r="6"/><circle cx="144" cy="154" r="6"/><circle cx="230" cy="136" r="6"/><circle cx="302" cy="184" r="6"/>
      </g>
      <text x="36" y="124" class="mono caption muted">primitive-1</text>
      <text x="204" y="124" class="mono caption muted">primitive-2</text>
      <text x="57" y="198" class="mono caption muted">labels</text>
      <text x="230" y="198" class="mono caption muted">flows_to</text>
    </g>
    <g transform="translate(34 372)">
      <text x="0" y="0" class="mono caption muted">outputs</text>
      <rect x="86" y="-20" width="72" height="30" rx="15" fill="#5A84FF"/><text x="122" y="1" text-anchor="middle" fill="#fff" class="mono" font-size="13">SVG</text>
      <rect x="170" y="-20" width="96" height="30" rx="15" fill="#4EC48C"/><text x="218" y="1" text-anchor="middle" fill="#fff" class="mono" font-size="13">DRAW.IO</text>
      <rect x="278" y="-20" width="78" height="30" rx="15" fill="#FFAE56"/><text x="317" y="1" text-anchor="middle" fill="#fff" class="mono" font-size="13">JSON</text>
    </g>
  </g>

  <g transform="translate(122 705)">
    <rect width="1360" height="74" rx="24" fill="#FFFFFF" fill-opacity="0.72" stroke="#D6DFEA"/>
    <g class="mono caption muted">
      <text x="38" y="45">01 decode</text>
      <text x="228" y="45">02 segment</text>
      <text x="430" y="45">03 primitives</text>
      <text x="648" y="45">04 relations</text>
      <text x="854" y="45">05 export</text>
      <text x="1030" y="45">06 benchmark</text>
      <text x="1248" y="45">07 refine</text>
    </g>
    <g stroke="#2E3247" stroke-opacity="0.28" stroke-width="2">
      <path d="M184 38H208" marker-end="url(#arrow)"/><path d="M384 38H408" marker-end="url(#arrow)"/><path d="M604 38H628" marker-end="url(#arrow)"/>
      <path d="M812 38H836" marker-end="url(#arrow)"/><path d="M990 38H1014" marker-end="url(#arrow)"/><path d="M1208 38H1232" marker-end="url(#arrow)"/>
    </g>
  </g>

  <g transform="translate(118 815)">
    <text class="serif ink" font-size="34" font-weight="700">Raster science, rebuilt as editable knowledge.</text>
    <text x="860" y="1" class="mono caption muted">github.com/Jasvina/FigVector</text>
    <text x="860" y="31" class="mono caption muted">dataset-register · dataset-run · dataset-eval · dataset-optimize</text>
  </g>
</svg>
